<?xml version="1.0" encoding="UTF-8" standalone="no"?>
<!-- Created with Inkscape (http://www.inkscape.org/) -->

<svg xmlns:dc="http://purl.org/dc/elements/1.1/" xmlns:cc="http://creativecommons.org/ns#" xmlns:rdf="http://www.w3.org/1999/02/22-rdf-syntax-ns#" xmlns:svg="http://www.w3.org/2000/svg" xmlns="http://www.w3.org/2000/svg" version="1.1" width="257.135" height="152.688" id="svg2">
    <defs id="defs4" />
<metadata>
    <rdf:RDF xmlns:cc="http://web.resource.org/cc/" xmlns:dc="http://purl.org/dc/elements/1.1/" xmlns:rdf="http://www.w3.org/1999/02/22-rdf-syntax-ns#">
      <cc:Work rdf:about="">
        <dc:title>Hat</dc:title>
        <dc:description>western looking hat</dc:description>
        <dc:subject>
          <rdf:Bag>
            <rdf:li>hat</rdf:li>
            <rdf:li>head</rdf:li>
            <rdf:li>cowboy</rdf:li>
            <rdf:li>symbol</rdf:li>
            <rdf:li>minimalistic</rdf:li>
            <rdf:li>western</rdf:li>
            <rdf:li>black</rdf:li>
            <rdf:li>silhouette</rdf:li>
          </rdf:Bag>
        </dc:subject>
        <dc:publisher>
          <cc:Agent rdf:about="http://www.openclipart.org">
            <dc:title>Open Clip Art Library</dc:title>
          </cc:Agent>
        </dc:publisher>
        <dc:creator>
          <cc:Agent>
            <dc:title>Jakub Jankiewicz</dc:title>
          </cc:Agent>
        </dc:creator>
        <dc:rights>
          <cc:Agent>
            <dc:title>Jakub Jankiewicz</dc:title>
          </cc:Agent>
        </dc:rights>
        <dc:date></dc:date>
        <dc:format>image/svg+xml</dc:format>
        <dc:type rdf:resource="http://purl.org/dc/dcmitype/StillImage"/>
        <cc:license rdf:resource="http://web.resource.org/cc/PublicDomain"/>
        <dc:language>pl</dc:language>
      </cc:Work>
      <cc:License rdf:about="http://web.resource.org/cc/PublicDomain">
        <cc:permits rdf:resource="http://web.resource.org/cc/Reproduction"/>
        <cc:permits rdf:resource="http://web.resource.org/cc/Distribution"/>
        <cc:permits rdf:resource="http://web.resource.org/cc/DerivativeWorks"/>
      </cc:License>
    </rdf:RDF>
  </metadata>
    <g id="layer1">
        <path d="M 128.51688,0 C 108.04129,0.54764 96.73666,2.66363 79.04813,11.5625 73.01875,14.5958 66.96938,21.82675 75.42313,20.21875 86.41276,18.1284 95.49446,10.25726 105.23563,6.6875 110.27708,4.84001 128.51688,0 128.51688,0 z m 13.78125,2 c -3.63294,0.0905 -7.05029,0.43471 -9.8125,1.0625 -6.8409,1.5548 -26.80513,6.85854 -22.1875,18.25 2.01365,4.96757 5.38925,4.93545 12.09375,7.03125 16.70037,5.22047 39.07858,0.1269 48.03125,-11.71875 C 178.21288,6.31806 158.04087,1.60791 142.29813,2 z M 88.20438,4.3125 c -10.67527,2.52846 -23.43897,10.29188 -28.3125,18.625 0,0 -3.25,4.34254 -3.25,10.84375 0,3.74667 1.75649,25.85486 3.28125,44.46875 -18.42723,6.15172 -28.36069,10.78139 -44.40625,24.15625 -6.9905801,5.82703 -11.2469601,12.23759 -14.4062501,20.625 -2.09533999,5.5628 -1.00597999,11.19237 1.4375,15.8125 3.03357,5.73587 8.4080801,10.82213 14.1562501,12.5 3.33723,0.97413 6.08216,1.34375 13.59375,1.34375 7.56356,0 29.95551,-3.51695 50.125,-10 20.16949,-6.48305 79.22722,-23.40837 103.71875,-29.53125 24.49152,-6.12288 57.26854,-15.8554 63.03125,-17.65625 3.84068,-1.20022 6.71972,-2.08445 8.21875,-2.53125 0.77209,-0.23013 1.24549,-0.68182 1.59375,-1.25 0.20081,-0.32762 0.16348,-0.67504 0.0937,-0.9375 -0.097,-0.3653 -0.51231,-0.53125 -2.28125,-0.53125 -3.0399,0 -9.12329,1.51672 -21.5,-0.4375 -12.37672,-1.95422 -25.56888,-5.25438 -32.6875,-7.46875 -2.50374,-0.77884 -4.62038,-2.07058 -5.5625,-2.6875 -0.20675,-0.87686 -8.25415,-35.03163 -13.78125,-61.0625 -6.60661,18.2301 -22.9815,24.543 -48.40625,23.84375 C 115.06356,41.94803 94.15079,33.75889 96.01683,19.5 c 0.87083,-6.65429 8.125,-11 8.125,-11 0,0 -11.3843,6.68329 -17.34375,10.65625 -6.04104,3.91868 -13.4434,5.31148 -20.65625,4.75 C 62.92057,23.13814 64.4184,20.6649 65.42308,19.46875 70.91686,12.92804 77.87478,7.96587 88.20433,4.3125 z m 106.875,76.21875 c 3.48996,1.87172 6.54104,2.88237 10.5,3.90625 4.19795,1.08567 22.65008,5.50646 31.625,6.375 8.97493,0.86854 15.15722,-0.0705 17.1875,-0.25 0.8507,-0.0752 1.99251,-0.0383 2.375,0.15625 0.12013,0.0611 0.28481,0.28952 0.15625,0.5625 -0.61917,1.31478 -1.87732,1.03982 -3.1875,1.0625 -5.02359,0.087 -15.38772,0.83379 -25.28125,2.8125 -14.40678,2.88136 -33.13771,4.67479 -48.625,10.4375 -15.48729,5.76272 -29.90572,13.33422 -44.3125,17.65625 -14.40677,4.32203 -31.6496,10.50135 -57.0625,18 -23.5542,6.9502 -51.42745,10.9325 -60.90625,8.53125 -5.23751,-1.32681 -10.1923901,-3.65387 -14.2812501,-10.875 -2.22767,-3.93416 -3.33324999,-8.52429 -1.40625,-14.15625 3.4671,-10.13314 15.1447801,-17.51039 25.0312501,-23.09375 10.19223,-5.75604 19.45895,-9.45282 33.71875,-9.8125 0.15475,-0.004 0.2855,0.003 0.4375,0 0.5888,7.06124 1.03125,12.1875 1.03125,12.1875 0,0 1.6062,4.42597 17.5,4.6875 29.44348,0.48449 75.95734,-10.23843 109.4375,-22.5625 4.8111,-1.77097 5.86082,-4.82079 6.0625,-5.625 z m 2.625,4.15625 c -17.72517,12.83485 -46.78417,18.22671 -79.46875,24.53125 -13.46352,2.59698 -35.97415,4.20162 -44.28125,2.9375 -8.30711,-1.26413 -12.78125,-5.0625 -12.78125,-5.0625 2.88035,11.59628 43.92565,5.97961 52.875,4.34375 12.87327,-2.35311 22.64644,-4.26707 35.09375,-7.0625 14.96573,-3.36102 40.83432,-10.31252 48.5625,-19.6875 z" id="path2996" style="fill:#E0D191;stroke:none" />
    </g>
</svg>
